<svg width="4" height="4" viewBox="0 0 4 4" fill="none" xmlns="http://www.w3.org/2000/svg">
<path d="M0.750206 3.42512C0.572062 3.24328 0.431386 3.0253 0.336823 2.78457C0.24226 2.54383 0.195809 2.28544 0.200322 2.02526C0.195733 1.76352 0.242106 1.50353 0.336634 1.2611C0.431161 1.01866 0.571871 0.798827 0.750206 0.614955C0.921729 0.424677 1.12965 0.274251 1.36047 0.173459C1.59129 0.0726678 1.83983 0.0237677 2.08992 0.029938C2.59621 0.0304911 3.08162 0.24089 3.43962 0.614966C3.79762 0.989042 3.99899 1.49624 3.99952 2.02526C4.00542 2.28658 3.95862 2.54628 3.86216 2.78746C3.7657 3.02864 3.62174 3.2459 3.43963 3.42512C3.26311 3.61068 3.05262 3.75719 2.82073 3.85591C2.58884 3.95462 2.34029 4.00352 2.08992 3.99969C1.84092 4.00441 1.59363 3.95587 1.36324 3.85706C1.13285 3.75826 0.924234 3.61126 0.750206 3.42512Z" fill="#BFBFBF"/>
</svg>
